<svg width="155" height="80" viewBox="0 0 155 80" fill="none" xmlns="http://www.w3.org/2000/svg">
<g clip-path="url(#clip0_933_11294)">
<path d="M104.021 25.6823C103.376 25.6892 102.733 25.6276 102.101 25.4983C101.593 25.3989 101.102 25.2268 100.643 24.9873C100.596 24.9562 100.558 24.9126 100.534 24.8614C100.511 24.8102 100.501 24.7534 100.508 24.6973V22.6903C100.508 22.5903 100.56 22.5613 100.665 22.6133C101.187 22.9464 101.757 23.1998 102.354 23.3653C102.922 23.5288 103.51 23.6133 104.101 23.6163C104.707 23.6672 105.313 23.5214 105.829 23.2003C105.993 23.083 106.127 22.9279 106.219 22.7482C106.311 22.5684 106.359 22.3692 106.358 22.1673C106.357 21.9856 106.32 21.806 106.249 21.6388C106.177 21.4716 106.074 21.3202 105.944 21.1933C105.501 20.8002 104.987 20.4948 104.43 20.2933L103.503 19.9063C102.986 19.7029 102.493 19.4408 102.036 19.1253C101.687 18.885 101.377 18.5922 101.118 18.2573C100.901 17.9706 100.741 17.6456 100.645 17.2993C100.554 16.9598 100.509 16.6098 100.51 16.2583C100.506 15.7644 100.605 15.2751 100.8 14.8213C100.995 14.3746 101.289 13.978 101.66 13.6613C102.072 13.3152 102.547 13.053 103.06 12.8893C103.683 12.692 104.334 12.5971 104.988 12.6083C105.557 12.6058 106.125 12.6479 106.688 12.7343C107.123 12.7947 107.546 12.9219 107.943 13.1113C107.982 13.1397 108.013 13.1777 108.034 13.2216C108.054 13.2656 108.063 13.314 108.059 13.3623V15.2353C108.06 15.253 108.057 15.2708 108.05 15.2872C108.043 15.3036 108.033 15.3184 108.02 15.3303C107.996 15.3583 107.95 15.3503 107.885 15.3123C107.477 15.0803 107.034 14.9172 106.573 14.8293C106.046 14.724 105.51 14.6721 104.973 14.6743C104.622 14.667 104.272 14.7064 103.931 14.7913C103.689 14.85 103.459 14.9542 103.256 15.0983C103.1 15.2128 102.977 15.3663 102.899 15.5433C102.793 15.7832 102.766 16.0505 102.821 16.3069C102.876 16.5633 103.011 16.7955 103.207 16.9703C103.672 17.352 104.197 17.6525 104.762 17.8593L105.495 18.1673C106.043 18.3819 106.567 18.6537 107.058 18.9783C107.431 19.2251 107.764 19.5288 108.043 19.8783C108.275 20.1719 108.452 20.5058 108.563 20.8633C108.669 21.2171 108.722 21.5849 108.72 21.9543C108.727 22.4827 108.619 23.0063 108.402 23.4883C108.187 23.9469 107.869 24.3499 107.474 24.6663C107.036 25.0109 106.534 25.2663 105.998 25.4183C105.358 25.6009 104.694 25.6889 104.029 25.6793" fill="white"/>
<path d="M114.326 15.7812C115.043 15.7656 115.755 15.8931 116.421 16.1562C116.984 16.3829 117.491 16.7285 117.908 17.1692C118.301 17.5964 118.603 18.0993 118.795 18.6472C118.996 19.2139 119.098 19.811 119.095 20.4122C119.114 21.2125 118.945 22.006 118.602 22.7292C118.293 23.3641 117.849 23.924 117.302 24.3702C116.755 24.8118 116.13 25.146 115.459 25.3552C114.769 25.5727 114.05 25.6826 113.327 25.6812C113.227 25.6812 113.127 25.6812 113.027 25.6732C112.927 25.6652 112.835 25.6572 112.746 25.6442V29.1192C112.748 29.1383 112.746 29.1575 112.74 29.1757C112.734 29.1938 112.724 29.2106 112.712 29.2249C112.699 29.2393 112.684 29.2509 112.666 29.259C112.649 29.2671 112.63 29.2716 112.611 29.2722C112.443 29.2982 112.247 29.3212 112.022 29.3412C111.797 29.3612 111.578 29.3792 111.366 29.3982L110.815 29.4472C110.662 29.4602 110.57 29.4672 110.546 29.4672C110.456 29.4672 110.411 29.4282 110.411 29.3502V17.7882C110.411 17.6722 110.411 17.4882 110.401 17.2382C110.399 17.041 110.383 16.8441 110.352 16.6492C110.349 16.6257 110.356 16.6019 110.371 16.5832C110.385 16.5644 110.407 16.5522 110.43 16.5492C110.868 16.4072 111.415 16.2429 112.071 16.0562C112.807 15.86 113.567 15.7662 114.329 15.7772M114.117 17.7642C113.653 17.7569 113.191 17.822 112.747 17.9572V23.6572C112.867 23.6857 112.989 23.7021 113.112 23.7062C113.254 23.7129 113.39 23.7162 113.518 23.7162C113.901 23.7144 114.282 23.6555 114.647 23.5412C115.022 23.4277 115.37 23.2407 115.672 22.9912C115.987 22.7237 116.24 22.3915 116.414 22.0172C116.618 21.5621 116.717 21.0668 116.703 20.5682C116.751 19.8189 116.509 19.08 116.028 18.5032C115.781 18.2513 115.482 18.0553 115.153 17.9287C114.823 17.8021 114.471 17.7477 114.118 17.7692" fill="white"/>
<path d="M124.942 15.779C125.623 15.7658 126.298 15.9006 126.921 16.174C127.471 16.4217 127.961 16.7846 128.358 17.238C128.752 17.6952 129.051 18.2266 129.237 18.801C129.648 20.0799 129.634 21.4572 129.199 22.728C128.99 23.3135 128.664 23.8506 128.242 24.307C127.829 24.7441 127.329 25.0893 126.774 25.32C125.495 25.8186 124.07 25.7946 122.808 25.253C122.249 24.9903 121.755 24.6084 121.359 24.134C120.977 23.6672 120.691 23.1287 120.52 22.55C120.34 21.9622 120.248 21.3508 120.248 20.736C120.244 20.0783 120.356 19.4251 120.578 18.806C120.784 18.2221 121.102 17.684 121.514 17.222C121.925 16.7674 122.428 16.4059 122.99 16.162C123.605 15.8965 124.27 15.7646 124.94 15.775M124.824 17.725C124.514 17.7189 124.206 17.7875 123.928 17.9252C123.649 18.0629 123.408 18.2655 123.224 18.516C122.779 19.1538 122.562 19.9226 122.606 20.699C122.573 21.4703 122.79 22.2318 123.224 22.87C123.516 23.2511 123.928 23.5229 124.394 23.6418C124.859 23.7608 125.351 23.72 125.79 23.526C126.067 23.3986 126.309 23.2066 126.496 22.966C126.71 22.6873 126.873 22.3736 126.979 22.039C127.109 21.6182 127.171 21.1793 127.162 20.739C127.163 20.3519 127.118 19.9662 127.027 19.59C126.946 19.246 126.806 18.919 126.611 18.624C126.427 18.3494 126.178 18.1239 125.887 17.967C125.559 17.8003 125.195 17.7178 124.827 17.727" fill="white"/>
<path d="M132.994 15.9718C133.042 15.9697 133.089 15.9839 133.127 16.0121C133.166 16.0402 133.194 16.0807 133.206 16.1268C133.267 16.2919 133.309 16.4633 133.332 16.6378C133.365 16.8498 133.386 17.0648 133.401 17.2838C133.761 16.851 134.2 16.4911 134.695 16.2238C135.245 15.9224 135.863 15.7694 136.49 15.7798C136.59 15.7798 136.645 15.8238 136.645 15.9138V17.9598C136.645 18.0508 136.586 18.0968 136.47 18.0968C135.847 18.0596 135.223 18.1512 134.636 18.3658C134.2 18.5084 133.813 18.7695 133.517 19.1198V25.3358C133.517 25.4358 133.458 25.4888 133.342 25.4888H131.334C131.217 25.4888 131.159 25.4378 131.159 25.3358V18.0068C131.159 17.7688 131.152 17.5338 131.139 17.3068C131.126 17.0798 131.113 16.8518 131.101 16.6398C131.089 16.4278 131.075 16.2398 131.06 16.0898C131.057 16.0738 131.058 16.0574 131.063 16.042C131.068 16.0265 131.077 16.0125 131.088 16.001C131.1 15.9896 131.114 15.9812 131.129 15.9764C131.145 15.9717 131.161 15.9708 131.177 15.9738L132.994 15.9718Z" fill="white"/>
<path d="M143.48 25.1804C143.48 25.3094 143.442 25.3874 143.364 25.4124C142.838 25.5995 142.282 25.6913 141.723 25.6834C141.046 25.7246 140.379 25.5033 139.86 25.0654C139.613 24.7857 139.427 24.458 139.312 24.1029C139.197 23.7477 139.157 23.3728 139.194 23.0014V17.9214H137.978C137.887 17.9104 137.843 17.8514 137.843 17.7484V16.1254C137.84 16.1047 137.842 16.0834 137.849 16.0635C137.855 16.0436 137.866 16.0254 137.881 16.0106C137.896 15.9957 137.914 15.9845 137.934 15.9779C137.954 15.9713 137.975 15.9694 137.996 15.9724H139.213C139.213 15.8064 139.22 15.6084 139.231 15.3834C139.242 15.1584 139.26 14.9334 139.28 14.7084C139.3 14.4834 139.319 14.2714 139.339 14.0724C139.352 13.9135 139.374 13.7556 139.406 13.5994C139.43 13.4994 139.483 13.4374 139.561 13.4264L141.511 13.1544C141.601 13.1434 141.646 13.1754 141.646 13.2544C141.62 13.5758 141.597 13.9908 141.577 14.4994C141.557 15.0081 141.548 15.4991 141.549 15.9724H143.422C143.441 15.9698 143.459 15.9714 143.477 15.9772C143.494 15.9831 143.51 15.9929 143.524 16.006C143.537 16.0192 143.547 16.0352 143.552 16.0528C143.558 16.0704 143.56 16.0891 143.557 16.1074V17.7904C143.56 17.8088 143.558 17.8275 143.552 17.845C143.547 17.8626 143.537 17.8786 143.524 17.8916C143.51 17.9047 143.494 17.9144 143.477 17.9201C143.459 17.9258 143.44 17.9273 143.422 17.9244H141.528V22.5004C141.503 22.8339 141.589 23.1662 141.771 23.4464C141.881 23.56 142.016 23.6468 142.164 23.7C142.313 23.7532 142.472 23.7715 142.629 23.7534C142.876 23.7529 143.122 23.7271 143.363 23.6764C143.441 23.6524 143.479 23.6894 143.479 23.7924L143.48 25.1804Z" fill="white"/>
<path d="M150.871 18.2084C150.521 18.0219 150.147 17.8852 149.76 17.8024C149.334 17.7015 148.897 17.6495 148.46 17.6474C148.083 17.6099 147.705 17.702 147.388 17.9084C147.299 17.9752 147.226 18.0609 147.174 18.1593C147.122 18.2577 147.093 18.3663 147.088 18.4774C147.09 18.5907 147.118 18.7019 147.17 18.8026C147.222 18.9033 147.297 18.9908 147.388 19.0584C147.767 19.3191 148.179 19.5267 148.615 19.6754C149.469 19.9434 150.254 20.3949 150.915 20.9984C151.352 21.4655 151.589 22.0864 151.572 22.7264C151.589 23.1404 151.508 23.5526 151.334 23.9286C151.16 24.3047 150.899 24.6338 150.572 24.8884C149.755 25.4616 148.768 25.7405 147.772 25.6794C147.244 25.684 146.717 25.6355 146.199 25.5344C145.798 25.4622 145.41 25.329 145.05 25.1394C145.009 25.1205 144.975 25.0905 144.951 25.053C144.928 25.0154 144.915 24.9719 144.915 24.9274V23.0954C144.915 22.9814 144.966 22.9484 145.068 22.9954C145.484 23.268 145.945 23.4672 146.429 23.5844C146.886 23.7019 147.356 23.7637 147.829 23.7684C148.216 23.7945 148.603 23.7139 148.948 23.5354C149.059 23.4755 149.152 23.3865 149.217 23.2779C149.282 23.1692 149.317 23.045 149.317 22.9184C149.314 22.7943 149.284 22.6724 149.227 22.5622C149.17 22.4519 149.088 22.3561 148.989 22.2824C148.606 22.0158 148.19 21.8012 147.752 21.6444C146.922 21.3945 146.163 20.9556 145.532 20.3624C145.104 19.8827 144.877 19.2576 144.896 18.6154C144.896 18.2493 144.972 17.8872 145.118 17.5514C145.268 17.2006 145.499 16.8904 145.793 16.6464C146.128 16.3694 146.511 16.1565 146.924 16.0184C147.433 15.8482 147.968 15.767 148.505 15.7784C148.996 15.771 149.486 15.8045 149.972 15.8784C150.305 15.9267 150.631 16.0205 150.939 16.1574C150.976 16.1831 151.006 16.2181 151.026 16.2589C151.046 16.2997 151.055 16.345 151.053 16.3904V18.0904C151.053 18.2064 150.996 18.2454 150.88 18.2064" fill="white"/>
<path d="M103.868 36.0945H99.9479C99.8479 36.0945 99.8079 36.0435 99.8339 35.9395L100.084 34.1445C100.084 34.1224 100.089 34.1005 100.098 34.0803C100.107 34.0602 100.12 34.0422 100.136 34.0275C100.153 34.0129 100.172 34.0019 100.194 33.9953C100.215 33.9888 100.237 33.9868 100.259 33.9895H109.853C109.877 33.9866 109.902 33.989 109.925 33.9965C109.949 34.0041 109.97 34.0166 109.988 34.0332C110.007 34.0498 110.021 34.0701 110.031 34.0928C110.04 34.1154 110.045 34.1399 110.044 34.1645L110.219 35.9215C110.232 36.0355 110.186 36.0945 110.085 36.0945H106.185V46.4995C106.185 46.6155 106.131 46.6725 106.03 46.6725H104.036C103.922 46.6855 103.865 46.6285 103.865 46.4995L103.868 36.0945Z" fill="white"/>
<path d="M111.317 42.4426C111.327 42.7679 111.395 43.089 111.517 43.3906C111.639 43.6847 111.824 43.9483 112.059 44.1626C112.321 44.3957 112.627 44.5733 112.959 44.6846C113.369 44.8204 113.799 44.8857 114.231 44.8776C115.052 44.8858 115.867 44.7276 116.626 44.4126C116.703 44.3616 116.742 44.3866 116.742 44.4906V46.0906C116.746 46.1337 116.737 46.1771 116.716 46.2152C116.696 46.2533 116.664 46.2844 116.626 46.3046C116.232 46.4904 115.817 46.6293 115.391 46.7186C114.844 46.8234 114.288 46.8717 113.732 46.8626C112.966 46.8849 112.204 46.7402 111.5 46.4386C110.93 46.1859 110.425 45.8066 110.024 45.3296C109.651 44.8719 109.375 44.3427 109.213 43.7746C109.047 43.2037 108.962 42.6121 108.963 42.0176C108.96 41.3657 109.061 40.7175 109.263 40.0976C109.449 39.5087 109.748 38.9613 110.142 38.4856C110.549 37.9936 111.063 37.6007 111.645 37.3365C112.226 37.0723 112.86 36.9438 113.499 36.9606C114.125 36.943 114.746 37.0721 115.313 37.3376C115.791 37.5694 116.213 37.9017 116.55 38.3116C116.864 38.7002 117.1 39.1461 117.245 39.6246C117.383 40.082 117.454 40.5568 117.457 41.0346C117.457 41.3056 117.449 41.5456 117.437 41.7586C117.43 41.9176 117.41 42.0757 117.378 42.2316C117.372 42.2688 117.354 42.3028 117.325 42.3275C117.297 42.3522 117.261 42.3661 117.223 42.3666C116.977 42.4009 116.729 42.4199 116.481 42.4236C116.127 42.4366 115.713 42.4416 115.236 42.4416L111.317 42.4426ZM114.193 40.7836H114.972C115.065 40.7876 115.158 40.7816 115.249 40.7656V40.6106C115.246 40.4336 115.22 40.2578 115.172 40.0876C115.111 39.8763 115.013 39.6776 114.882 39.5006C114.731 39.2989 114.536 39.1338 114.313 39.0176C114.033 38.8743 113.72 38.8054 113.406 38.8176C113.107 38.8103 112.811 38.8701 112.538 38.9926C112.303 39.0998 112.093 39.2543 111.92 39.4466C111.75 39.6332 111.615 39.8486 111.52 40.0826C111.429 40.3081 111.361 40.5428 111.32 40.7826L114.193 40.7836Z" fill="white"/>
<path d="M125.815 46.4049C125.815 46.4949 125.782 46.5449 125.715 46.5599C125.388 46.6919 125.043 46.7764 124.692 46.8109C124.319 46.8486 123.945 46.8676 123.571 46.8679C122.853 46.879 122.14 46.7517 121.471 46.4929C120.881 46.2605 120.348 45.9045 119.908 45.4489C119.48 44.9993 119.148 44.4676 118.932 43.8859C118.704 43.2646 118.59 42.6075 118.596 41.9459C118.59 41.267 118.721 40.5939 118.981 39.9669C119.229 39.3705 119.597 38.8319 120.063 38.3849C120.544 37.9299 121.112 37.5757 121.732 37.3429C122.425 37.0825 123.161 36.9529 123.901 36.9609C124.285 36.9554 124.669 36.9745 125.05 37.0179C125.277 37.0454 125.5 37.0973 125.716 37.1729C125.75 37.1962 125.778 37.2284 125.795 37.266C125.813 37.3037 125.82 37.3455 125.816 37.3869L125.796 39.1049C125.796 39.2049 125.744 39.2449 125.643 39.2189C125.413 39.1369 125.177 39.0753 124.937 39.0349C124.621 38.9865 124.301 38.9641 123.981 38.9679C123.19 38.9335 122.417 39.2033 121.819 39.7219C121.534 39.9978 121.313 40.3322 121.17 40.702C121.027 41.0718 120.965 41.4681 120.99 41.8639C120.976 42.3245 121.065 42.7825 121.249 43.2049C121.408 43.5522 121.643 43.8597 121.936 44.1049C122.221 44.3371 122.548 44.5111 122.9 44.6169C123.257 44.7244 123.627 44.7793 124 44.7799C124.319 44.7813 124.637 44.765 124.954 44.7309C125.2 44.7082 125.442 44.6599 125.678 44.5869C125.768 44.5479 125.813 44.5799 125.813 44.6869L125.815 46.4049Z" fill="white"/>
<path d="M129.751 46.536C129.754 46.5544 129.752 46.5731 129.747 46.5907C129.741 46.6083 129.731 46.6243 129.718 46.6374C129.705 46.6506 129.689 46.6604 129.671 46.6663C129.653 46.6721 129.635 46.6737 129.616 46.671H127.57C127.549 46.6742 127.528 46.6724 127.508 46.6659C127.488 46.6593 127.47 46.6482 127.455 46.6333C127.439 46.6185 127.428 46.6003 127.421 46.5803C127.414 46.5603 127.412 46.539 127.415 46.518V33.062C127.415 32.972 127.467 32.927 127.57 32.927H129.614C129.633 32.9243 129.651 32.926 129.669 32.9318C129.687 32.9377 129.703 32.9475 129.716 32.9606C129.729 32.9738 129.739 32.9897 129.745 33.0074C129.75 33.025 129.752 33.0437 129.749 33.062V37.844C130.115 37.5788 130.514 37.3617 130.935 37.198C131.766 36.9042 132.667 36.8772 133.513 37.121C133.903 37.2317 134.26 37.4336 134.555 37.71C134.894 38.0364 135.155 38.4349 135.318 38.876C135.537 39.485 135.638 40.1295 135.618 40.776V46.491C135.618 46.607 135.566 46.664 135.463 46.664H133.453C133.43 46.6674 133.406 46.6652 133.383 46.6577C133.361 46.6502 133.34 46.6375 133.324 46.6207C133.307 46.604 133.294 46.5835 133.287 46.561C133.279 46.5385 133.277 46.5145 133.28 46.491V41.016C133.317 40.4817 133.171 39.9508 132.866 39.51C132.711 39.3306 132.516 39.1901 132.296 39.0998C132.077 39.0095 131.839 38.9719 131.602 38.99C130.922 38.9753 130.261 39.2162 129.749 39.665L129.751 46.536Z" fill="white"/>
<path d="M103.577 65.9705C103.577 66.0865 103.526 66.1435 103.422 66.1435H101.394C101.294 66.1435 101.242 66.0865 101.242 65.9705V53.6155C101.239 53.5948 101.24 53.5736 101.247 53.5538C101.254 53.5339 101.265 53.5159 101.279 53.5011C101.294 53.4862 101.312 53.475 101.332 53.4683C101.352 53.4616 101.373 53.4596 101.394 53.4625H103.422C103.443 53.4593 103.464 53.4611 103.484 53.4676C103.504 53.4742 103.522 53.4853 103.537 53.5001C103.552 53.515 103.564 53.5332 103.571 53.5532C103.577 53.5732 103.579 53.5945 103.577 53.6155V65.9705Z" fill="white"/>
<path d="M107.747 56.6271C107.795 56.625 107.842 56.6392 107.88 56.6673C107.919 56.6955 107.947 56.736 107.959 56.7821C108.02 56.9471 108.062 57.1186 108.085 57.2931C108.118 57.5051 108.139 57.7201 108.154 57.9391C108.514 57.5062 108.953 57.1464 109.448 56.8791C109.998 56.5777 110.616 56.4247 111.243 56.4351C111.343 56.4351 111.398 56.4791 111.398 56.5691V58.6151C111.398 58.7061 111.339 58.7521 111.223 58.7521C110.6 58.7149 109.975 58.8065 109.389 59.0211C108.953 59.1637 108.566 59.4247 108.27 59.7751V65.9911C108.27 66.0911 108.211 66.1441 108.095 66.1441H106.087C105.97 66.1441 105.911 66.0931 105.911 65.9911V58.6621C105.911 58.4241 105.911 58.1891 105.893 57.9621C105.875 57.7351 105.867 57.5071 105.855 57.2951C105.843 57.0831 105.829 56.8951 105.814 56.7451C105.811 56.7291 105.812 56.7127 105.817 56.6972C105.822 56.6818 105.831 56.6677 105.842 56.6563C105.854 56.6449 105.868 56.6365 105.883 56.6317C105.899 56.627 105.915 56.6261 105.931 56.6291L107.747 56.6271Z" fill="white"/>
<path d="M114.385 61.9143C114.395 62.2396 114.463 62.5606 114.585 62.8623C114.706 63.1567 114.891 63.4204 115.127 63.6343C115.389 63.8674 115.695 64.0449 116.027 64.1563C116.437 64.2921 116.867 64.3574 117.299 64.3493C118.121 64.3575 118.936 64.1993 119.694 63.8843C119.771 63.8333 119.81 63.8583 119.81 63.9623V65.5623C119.814 65.6054 119.805 65.6488 119.785 65.6869C119.764 65.7249 119.733 65.7561 119.694 65.7763C119.3 65.962 118.886 66.101 118.459 66.1903C117.913 66.2951 117.357 66.3433 116.8 66.3343C116.034 66.3566 115.273 66.2119 114.568 65.9103C113.998 65.6576 113.494 65.2783 113.092 64.8013C112.718 64.344 112.442 63.8147 112.281 63.2463C112.115 62.6754 112.031 62.0838 112.031 61.4893C112.028 60.8377 112.129 60.1898 112.331 59.5703C112.517 58.9809 112.816 58.4331 113.21 57.9573C113.618 57.4653 114.132 57.0724 114.713 56.8082C115.295 56.544 115.929 56.4155 116.567 56.4323C117.193 56.4146 117.814 56.5437 118.381 56.8093C118.859 57.0407 119.28 57.3731 119.616 57.7833C119.933 58.1716 120.171 58.6183 120.316 59.0983C120.454 59.5549 120.526 60.0292 120.528 60.5063C120.528 60.7773 120.52 61.0183 120.508 61.2303C120.501 61.3892 120.482 61.5474 120.449 61.7033C120.444 61.7405 120.425 61.7744 120.397 61.7992C120.368 61.8239 120.332 61.8377 120.294 61.8383C120.048 61.8726 119.801 61.8916 119.552 61.8953C119.198 61.9083 118.784 61.9133 118.307 61.9133L114.385 61.9143ZM117.259 60.2543H118.042C118.135 60.2583 118.228 60.2523 118.319 60.2363V60.0813C118.314 59.9043 118.285 59.7288 118.234 59.5593C118.173 59.3483 118.075 59.1497 117.945 58.9723C117.793 58.7709 117.598 58.6059 117.374 58.4893C117.094 58.346 116.782 58.2771 116.467 58.2893C116.169 58.282 115.872 58.3418 115.599 58.4643C115.364 58.5714 115.154 58.726 114.981 58.9183C114.811 59.1049 114.676 59.3202 114.581 59.5543C114.49 59.7798 114.423 60.0145 114.381 60.2543H117.259Z" fill="white"/>
<path d="M122.069 52.5554C122.069 52.4554 122.128 52.4004 122.244 52.4004H124.231C124.348 52.4004 124.406 52.4524 124.406 52.5554V63.6364C124.383 63.8556 124.442 64.0755 124.571 64.2544C124.639 64.3168 124.72 64.3644 124.808 64.3942C124.896 64.4239 124.989 64.4352 125.082 64.4274H125.255C125.319 64.4249 125.384 64.4182 125.448 64.4074C125.5 64.3944 125.526 64.4334 125.526 64.5234V65.9724C125.529 66.018 125.522 66.0636 125.506 66.1064C125.482 66.1422 125.447 66.1692 125.406 66.1834C125.272 66.2446 125.128 66.2841 124.982 66.3004C124.758 66.3278 124.532 66.3405 124.307 66.3384C124.013 66.3409 123.721 66.3053 123.437 66.2324C123.172 66.1654 122.928 66.0361 122.724 65.8554C122.5 65.6476 122.335 65.3844 122.245 65.0924C122.118 64.69 122.058 64.2692 122.07 63.8474L122.069 52.5554Z" fill="white"/>
<path d="M134.21 64.173V64.791C134.211 64.9916 134.224 65.192 134.249 65.391C134.251 65.4063 134.248 65.4217 134.241 65.4354C134.234 65.4491 134.223 65.4605 134.21 65.468C133.81 65.634 133.442 65.773 133.101 65.882C132.76 65.991 132.429 66.082 132.107 66.153C131.792 66.2224 131.473 66.2708 131.151 66.298C130.836 66.324 130.518 66.337 130.195 66.337C129.697 66.3406 129.201 66.2788 128.719 66.153C128.284 66.0431 127.876 65.8461 127.519 65.574C127.175 65.3075 126.897 64.9653 126.707 64.574C126.499 64.1346 126.396 63.6523 126.407 63.166C126.396 62.6979 126.509 62.2351 126.735 61.825C126.959 61.4393 127.27 61.1118 127.644 60.869C128.063 60.597 128.527 60.401 129.014 60.29C129.583 60.1561 130.166 60.091 130.75 60.096C131.05 60.096 131.297 60.096 131.504 60.107C131.711 60.118 131.858 60.123 131.948 60.135V59.903C131.944 59.762 131.921 59.6222 131.881 59.487C131.826 59.3116 131.734 59.1502 131.61 59.014C131.445 58.8413 131.244 58.7065 131.021 58.619C130.694 58.499 130.346 58.4436 129.998 58.456C129.125 58.442 128.26 58.6266 127.469 58.996C127.453 59.0029 127.436 59.0064 127.419 59.0064C127.402 59.0064 127.385 59.0029 127.369 58.996C127.331 58.985 127.312 58.945 127.312 58.88V57.2C127.313 57.1606 127.324 57.1221 127.345 57.0883C127.365 57.0545 127.394 57.0265 127.428 57.007C127.868 56.8053 128.332 56.6595 128.808 56.573C129.32 56.4763 129.84 56.4277 130.361 56.428C130.951 56.414 131.538 56.5159 132.089 56.728C132.544 56.9076 132.953 57.1848 133.289 57.54C133.607 57.8857 133.845 58.2976 133.984 58.746C134.136 59.2335 134.211 59.7415 134.206 60.252L134.21 64.173ZM131.952 61.896C131.6 61.8557 131.245 61.8373 130.89 61.841C130.308 61.7969 129.725 61.9208 129.211 62.198C129.047 62.3018 128.913 62.4462 128.821 62.6173C128.73 62.7883 128.684 62.9801 128.689 63.174C128.689 63.3513 128.727 63.5266 128.8 63.6879C128.874 63.8493 128.981 63.9929 129.115 64.109C129.538 64.4188 130.06 64.5613 130.582 64.509C130.821 64.5097 131.059 64.4926 131.295 64.458C131.521 64.4262 131.742 64.3653 131.952 64.277V61.896Z" fill="white"/>
<path d="M136.449 58.8416C136.449 58.6756 136.449 58.4906 136.439 58.2916C136.429 58.0926 136.426 57.8916 136.419 57.7026C136.412 57.5136 136.408 57.3306 136.401 57.1606C136.394 56.9906 136.385 56.8606 136.372 56.7606C136.37 56.7423 136.371 56.7235 136.377 56.7059C136.383 56.6883 136.393 56.6723 136.406 56.6592C136.419 56.6461 136.435 56.6362 136.453 56.6304C136.47 56.6246 136.489 56.6229 136.507 56.6256H138.262C138.31 56.6204 138.359 56.6306 138.401 56.6549C138.442 56.6792 138.475 56.7163 138.494 56.7606C138.524 56.8656 138.546 56.9726 138.561 57.0806C138.581 57.2026 138.603 57.3396 138.63 57.4946C139.405 56.8145 140.399 56.4374 141.43 56.4326C141.806 56.4354 142.18 56.4902 142.541 56.5956C142.929 56.7113 143.285 56.9134 143.583 57.1866C143.926 57.512 144.189 57.9116 144.353 58.3546C144.573 58.9633 144.675 59.608 144.653 60.2546V65.9676C144.653 66.0846 144.601 66.1406 144.498 66.1406H142.491C142.468 66.1444 142.444 66.1425 142.421 66.1352C142.398 66.1278 142.378 66.1152 142.361 66.0983C142.344 66.0814 142.331 66.0608 142.324 66.038C142.316 66.0153 142.315 65.9912 142.318 65.9676V60.4676C142.352 59.9409 142.209 59.418 141.912 58.9816C141.759 58.8017 141.565 58.6607 141.347 58.5703C141.129 58.4799 140.892 58.4426 140.656 58.4616C140.305 58.4503 139.956 58.5152 139.632 58.6517C139.308 58.7883 139.017 58.9933 138.78 59.2526V65.9906C138.783 66.0115 138.781 66.0327 138.774 66.0526C138.767 66.0725 138.756 66.0905 138.741 66.1052C138.726 66.1199 138.707 66.131 138.687 66.1375C138.667 66.144 138.646 66.1457 138.625 66.1426H136.604C136.584 66.1457 136.562 66.144 136.542 66.1375C136.522 66.131 136.504 66.1199 136.489 66.1052C136.474 66.0905 136.463 66.0725 136.456 66.0526C136.449 66.0327 136.447 66.0115 136.449 65.9906V58.8416Z" fill="white"/>
<path d="M151.237 66.3364C150.575 66.3412 149.917 66.2399 149.287 66.0364C148.704 65.8505 148.167 65.5419 147.713 65.1314C147.257 64.7066 146.901 64.1857 146.671 63.6064C146.409 62.9268 146.281 62.2026 146.296 61.4744C146.292 60.7999 146.42 60.1312 146.671 59.5054C146.915 58.8997 147.287 58.3539 147.762 57.9054C148.263 57.4397 148.85 57.0762 149.49 56.8354C150.221 56.56 150.996 56.4243 151.777 56.4354C151.919 56.4354 152.049 56.4354 152.172 56.4454C152.318 56.4536 152.464 56.4693 152.608 56.4924V52.5354C152.608 52.4454 152.646 52.4014 152.724 52.4014H154.824C154.888 52.4014 154.924 52.4394 154.924 52.5154V64.1754C154.924 64.3684 154.931 64.5754 154.944 64.8014C154.957 65.0274 154.975 65.2304 155.001 65.4104C155.005 65.4485 154.996 65.4869 154.975 65.5189C154.954 65.5508 154.922 65.5744 154.885 65.5854C154.287 65.8464 153.663 66.0402 153.022 66.1634C152.434 66.2783 151.836 66.3369 151.237 66.3384M152.607 58.5204C152.315 58.4209 152.007 58.3751 151.698 58.3854C151.294 58.3818 150.893 58.4495 150.512 58.5854C150.159 58.7141 149.834 58.9108 149.556 59.1644C149.279 59.4273 149.062 59.7473 148.92 60.1024C148.76 60.5005 148.682 60.9265 148.688 61.3554C148.676 61.816 148.752 62.2747 148.91 62.7074C149.041 63.0558 149.246 63.3719 149.51 63.6344C149.761 63.8786 150.065 64.0602 150.399 64.1644C150.751 64.2761 151.119 64.3318 151.489 64.3294C151.682 64.3294 151.872 64.3184 152.058 64.3004C152.246 64.281 152.431 64.2386 152.608 64.1744L152.607 58.5204Z" fill="white"/>
<path d="M51.5517 5.20262L50.082 10.7285L50.542 10.8509L52.0117 5.32497L51.5517 5.20262Z" fill="white"/>
<path d="M83.033 36.3339L82.833 34.9209L72 36.4209C72.077 36.8909 72.144 37.3609 72.2 37.8349L83.033 36.3339Z" fill="white"/>
<path d="M64.7749 12.6159L63.6379 11.7559L59.8379 16.7759C60.2246 17.0545 60.6036 17.3415 60.9749 17.6369L64.7749 12.6159Z" fill="white"/>
<path d="M73.1773 44.5693L72.8923 46.5193H72.9033L72.8653 46.7193C72.8163 46.9823 72.7653 47.2463 72.7053 47.5103L72.6543 47.7473L82.0053 49.0933L82.5943 45.3283L73.1773 44.5693Z" fill="white"/>
<path d="M74.7781 15.7656L65.5391 22.4916L65.6871 22.6806C66.1681 23.2896 66.6361 23.9306 67.0771 24.5896L67.2111 24.7896L76.4501 18.0636L74.7781 15.7656Z" fill="white"/>
<path d="M56.2676 72.4451L57.5186 75.0851L58.8086 74.4751L56.5866 69.7881L55.6816 70.2151L56.6406 72.2711L56.2676 72.4451Z" fill="white"/>
<path d="M53.7957 8.76106L54.2427 8.92406L52.7647 13.0061C52.8247 13.0271 52.8857 13.0481 52.9457 13.0711L56.0337 4.38906L54.6897 3.91406L51.5977 12.6001C51.8387 12.6781 52.0787 12.7601 52.3167 12.8431L53.7957 8.76106Z" fill="white"/>
<path d="M79.8843 33.5323L79.1763 30.7803L70.9632 32.8913L69.0312 33.3913L69.1012 33.6213C69.2142 33.9953 69.3213 34.3733 69.4193 34.7563C69.5173 35.1393 69.6053 35.5233 69.6883 35.9063L69.7393 36.1413L72.0783 35.5413L79.8843 33.5323Z" fill="white"/>
<path d="M66.7656 58.4346L74.6406 63.0876L75.6516 61.5876L67.7616 56.9346L66.7656 58.4346Z" fill="white"/>
<path d="M70.5368 41.0805L72.3948 40.9895C72.3948 40.5115 72.3748 40.0365 72.3478 39.5625L70.4648 39.6555C70.5008 40.1315 70.5238 40.6065 70.5368 41.0815" fill="white"/>
<path d="M80.8177 40.5743L80.7477 39.1523L72.3477 39.5663C72.3757 40.0413 72.3897 40.5153 72.3947 40.9923L80.8177 40.5743Z" fill="white"/>
<path d="M63.4202 19.4806C63.0776 19.1473 62.7262 18.8209 62.3662 18.5016L62.1963 18.3496L60.4062 20.3186L60.5853 20.4736C60.9343 20.7736 61.2852 21.0966 61.6322 21.4266L61.8032 21.5896L63.5793 19.6366L63.4202 19.4806Z" fill="white"/>
<path d="M67.8939 13.2383L63.9219 17.6123L64.0969 17.7673C64.4509 18.0806 64.7972 18.4026 65.1359 18.7333L65.3059 18.8983L69.2929 14.5103L67.8939 13.2383Z" fill="white"/>
<path d="M54.2493 8.92374L53.8023 8.76074L52.3223 12.8437L52.7713 13.0037L54.2493 8.92374Z" fill="white"/>
<path d="M54.536 8.78382L53.653 8.46582L52.175 12.5458L51.25 15.1058L51.47 15.1828C51.618 15.2368 51.77 15.2908 51.912 15.3458L52.131 15.4278L53.058 12.8678L54.536 8.78382ZM53.936 9.05682H53.949L52.626 12.7088L52.613 12.7018L53.936 9.05682Z" fill="white"/>
<path d="M56.2688 72.4449L56.6428 72.2699L55.6838 70.2139L55.2988 70.3969L56.2688 72.4449Z" fill="#7BB270"/>
<path d="M56.577 72.5554L56.949 72.3824L55.99 70.3254L55.058 68.3404L54.448 67.1084L54.239 67.2084C54.107 67.2704 53.975 67.3344 53.839 67.3944L53.627 67.4944L54.203 68.7324L56.099 72.7734L56.159 72.7454L56.213 72.7214L56.577 72.5534V72.5554Z" fill="white"/>
<path d="M65.6812 63.2988L64.4902 64.5838L68.1282 67.9538L69.3502 66.6368L65.6812 63.2988Z" fill="white"/>
<path d="M71.3252 48.3076L71.2342 48.6766C71.2082 48.7766 71.1832 48.8766 71.1562 48.9766C71.0749 49.2866 70.9872 49.594 70.8932 49.8986L70.8242 50.1286L73.0072 50.6896L73.4782 48.8596L71.3252 48.3076Z" fill="white"/>
<path d="M69.6439 47.876L69.5899 48.106C69.4899 48.558 69.3669 49.018 69.2359 49.478L69.1719 49.706L71.2719 50.244L71.3359 50.034C71.4289 49.722 71.5189 49.411 71.6019 49.098L71.7719 48.423L69.6439 47.876Z" fill="white"/>
<path d="M50.3809 11.4048C50.1379 11.3408 49.8929 11.2828 49.6499 11.2258L49.4299 11.1748L48.7559 13.8148L48.9859 13.8668C49.4479 13.9728 49.9039 14.0908 50.3599 14.2178L50.5869 14.2828L51.2599 11.6448L50.3809 11.4048Z" fill="white"/>
<path d="M58.044 67.2514L57.095 65.6514L56.895 65.7754C56.795 65.8394 56.689 65.9014 56.583 65.9634C56.418 66.0634 56.25 66.1634 56.083 66.2554L55.877 66.3714L56.585 67.5714L60.6 74.3514L61.819 73.6324L58.044 67.2514Z" fill="white"/>
<path d="M72.5082 23.0898L67.873 25.9336L68.8609 27.5437L73.4961 24.6999L72.5082 23.0898Z" fill="white"/>
<path d="M61.6208 62.1191L61.4498 62.2821C61.1028 62.6081 60.7498 62.9261 60.3958 63.2281L60.2148 63.3801L61.4918 64.8091L61.6628 64.6651C62.0328 64.3581 62.3938 64.0451 62.7478 63.7201L62.9158 63.5651L61.6208 62.1191Z" fill="white"/>
<path d="M64.8597 68.2278L65.9237 67.2748L62.5907 63.5518C62.2387 63.8728 61.8807 64.1848 61.5137 64.4898L64.8597 68.2278Z" fill="white"/>
<path d="M69.354 53.957L69.254 54.167C69.048 54.594 68.838 55.017 68.616 55.433L68.502 55.643L73.324 57.991L74.151 56.291L69.354 53.957Z" fill="white"/>
<path d="M67.3535 54.8298L68.8165 55.5409C69.0405 55.1229 69.2555 54.6978 69.4595 54.2688L67.9785 53.5479C67.7785 53.9799 67.5702 54.4072 67.3535 54.8298Z" fill="white"/>
<path d="M68.9171 55.8463L67.0391 54.9343L67.1501 54.7223C67.3591 54.3223 67.5681 53.8923 67.7701 53.4513L67.8701 53.2363L69.7701 54.1593L69.6701 54.3653C69.4627 54.8007 69.2467 55.2293 69.0221 55.6513L68.9171 55.8463ZM67.6671 54.7253L68.7181 55.2363C68.8681 54.9523 69.0121 54.6673 69.1521 54.3753L68.0901 53.8583C67.9511 54.1583 67.8091 54.4453 67.6671 54.7263" fill="white"/>
<path d="M56.0687 14.4651L56.1817 14.2301L55.9547 14.1211L55.8457 14.3511L56.0687 14.4651Z" fill="#7BB270"/>
<path d="M56.1731 14.7785L55.5371 14.4555L55.8441 13.8125L56.4901 14.1225L56.1731 14.7785Z" fill="#7BB270"/>
<path d="M55.9492 14.1391C55.5972 13.9611 55.2412 13.7921 54.8822 13.6271L54.6752 13.5391L53.4922 15.9861L53.7072 16.0861C54.1212 16.2741 54.5522 16.4811 54.9842 16.7031L55.1932 16.8091L56.3742 14.3701L55.9492 14.1391Z" fill="white"/>
<path d="M53.2456 16.6626C52.8882 16.4979 52.5266 16.3396 52.1606 16.1876L51.9516 16.1016L50.8516 18.5876L51.0706 18.6756C51.4966 18.8506 51.9336 19.0426 52.3706 19.2446L52.5846 19.3446L53.6816 16.8686L53.2456 16.6626Z" fill="white"/>
<path d="M54.7832 13.8414C55.1405 14.0047 55.4939 14.1744 55.8432 14.3504L55.9522 14.1224L54.8952 13.6084L54.7832 13.8414Z" fill="#7BB270"/>
<path d="M55.9507 14.6618L55.7387 14.5558C55.3927 14.3812 55.0423 14.2125 54.6877 14.0498L54.4727 13.9498L54.7887 13.2988L56.2617 14.0098L55.9507 14.6618Z" fill="white"/>
<path d="M60.1276 19.0748L59.0186 18.1748L58.1066 19.2968L55.8066 22.3118L56.9156 23.2118L59.2416 20.1608L60.1276 19.0748Z" fill="white"/>
<path d="M51.8278 70.2563L52.2778 70.1033L52.1668 69.7803C52.0188 69.8323 51.8668 69.8803 51.7168 69.9333L51.8278 70.2563Z" fill="white"/>
<path d="M51.7298 68.4988C51.6728 68.5188 51.6158 68.5378 51.5588 68.5588C51.6158 68.5378 51.6728 68.5178 51.7298 68.4988L50.7118 65.5088C50.5618 65.5608 50.4118 65.6088 50.2598 65.6618L51.2808 68.6618L51.7148 69.9348C51.8648 69.8858 52.0148 69.8348 52.1648 69.7848L51.7298 68.4988Z" fill="white"/>
<path d="M75.3859 30.8696L74.9259 29.5186L70.5409 30.8756L68.6289 31.5266C68.7999 31.9686 68.9599 32.4156 69.1089 32.8706L71.0089 32.2266C70.9849 32.1496 70.9549 32.0736 70.9289 31.9966C70.9549 32.0736 70.9839 32.1496 71.0089 32.2266L75.3859 30.8696Z" fill="white"/>
<path d="M76.8016 26.9133L76.2126 25.6133L71.9816 27.3933L70.1426 28.2283C70.3566 28.6513 70.5566 29.0813 70.7516 29.5183L72.5736 28.6933C72.5406 28.6183 72.5046 28.5453 72.4736 28.4693C72.5066 28.5443 72.5436 28.6173 72.5736 28.6933L76.8016 26.9133Z" fill="white"/>
<path d="M66.2676 32.3304C66.4336 32.7774 66.5886 33.2304 66.7276 33.6814L69.1076 32.8704C68.9589 32.417 68.7989 31.969 68.6276 31.5264L66.2676 32.3304Z" fill="white"/>
<path d="M76.0911 46.1692L64.2681 44.9492C64.2391 45.2652 64.2041 45.5822 64.1621 45.8952L75.9831 47.1692L76.0911 46.1692Z" fill="white"/>
<path d="M58.7082 16.0032L59.6932 14.4122L58.4792 13.6602L57.4952 15.2512L56.3172 17.1602C56.6372 17.3442 56.9522 17.5422 57.2682 17.7392C56.9522 17.5392 56.6372 17.3442 56.3152 17.1602L55.1152 19.0952C55.5282 19.3352 55.9312 19.5832 56.3302 19.8452L57.5302 17.9022L58.7082 16.0032Z" fill="white"/>
<path d="M48.9728 69.334C48.7608 69.386 48.5518 69.434 48.3418 69.484L48.6418 70.784L49.4298 74.135L49.6238 74.088L50.1568 73.964L49.3098 70.627L48.9728 69.334Z" fill="white"/>
<path d="M49.5732 70.56L49.2662 69.26L48.5402 66.167C48.2332 66.247 47.9232 66.32 47.6152 66.387L48.3412 69.487C48.5532 69.44 48.7622 69.387 48.9722 69.337C49.0052 69.33 49.0362 69.324 49.0652 69.316C49.0362 69.324 49.0052 69.331 48.9742 69.337L49.3072 70.637C49.3739 70.6223 49.4406 70.606 49.5072 70.588C49.4422 70.606 49.3762 70.622 49.3072 70.639L50.1622 73.969L50.3622 73.923L49.5732 70.56Z" fill="white"/>
<path d="M64.0195 54.1086L67.2195 55.7416L67.7385 54.7286L64.5535 53.1416C64.3825 53.4676 64.2055 53.7906 64.0195 54.1086Z" fill="white"/>
<path d="M61.2257 23.1654L62.0727 23.9654L61.0787 25.0244C61.4127 25.3424 61.7357 25.6724 62.0557 26.0114L65.6757 22.2344L63.7177 20.3564L60.0977 24.1334L60.2217 24.2334L61.2257 23.1654Z" fill="white"/>
<path d="M42.3184 66.3408L42.4994 75.2618L44.4374 75.2228L44.2544 66.3018C43.6097 66.3411 42.9644 66.3541 42.3184 66.3408Z" fill="white"/>
<path d="M61.2383 24.855C60.9543 24.5823 60.6656 24.318 60.3723 24.062L60.2043 23.917L58.9043 25.297L59.0793 25.455C59.3683 25.713 59.6473 25.975 59.9193 26.245L60.0873 26.413L61.4003 25.013L61.2383 24.855Z" fill="white"/>
<path d="M62.0736 23.966L61.2266 23.166L60.2266 24.235C60.5186 24.489 60.8026 24.751 61.0846 25.02L62.0736 23.966Z" fill="white"/>
<path d="M61.0877 25.3469L60.9177 25.1849C60.6407 24.9169 60.3577 24.6579 60.0677 24.4069L59.8887 24.2499L61.2147 22.8389L62.3987 23.9519L61.0877 25.3469ZM60.5527 24.2179C60.7277 24.3729 60.8987 24.5309 61.0697 24.6909L61.7467 23.9699L61.2357 23.4899L60.5527 24.2179Z" fill="white"/>
<path d="M65.8801 55.435L63.8101 54.135L62.1951 53.124L62.0741 53.324C61.9421 53.544 61.8051 53.761 61.6681 53.973L61.5391 54.173L63.1801 55.199L65.2231 56.481L65.8801 55.435Z" fill="white"/>
<path d="M46.5797 64.2266L46.1217 64.2866L45.4157 64.3796L44.9707 64.4386L45.2317 66.4196L45.4537 66.3986C45.8437 66.3596 46.2317 66.3136 46.6187 66.2586L46.8437 66.2256L46.5797 64.2266Z" fill="white"/>
<path d="M57.0978 61.4443L56.0378 59.9443L55.8488 60.0813C55.7488 60.1563 55.6398 60.2293 55.5368 60.3013L55.3438 60.4353L56.4058 61.9353L58.7077 65.1993L59.4028 64.7103L57.0978 61.4443Z" fill="white"/>
<path d="M59.0266 10.7787L57.5726 10.0547L55.5156 14.1837L56.0916 14.4707L56.9706 14.9077L58.7766 11.2827L59.0266 10.7787Z" fill="white"/>
<path d="M63.8569 51.2402L63.2969 52.3592L63.7459 52.5962L63.5779 52.9172L64.6509 53.4502L64.7569 53.2502C64.9379 52.9042 65.1089 52.5502 65.2739 52.1992L65.3689 51.9992L63.8569 51.2402Z" fill="white"/>
<path d="M59.8193 61.2843L60.2893 60.8783L59.2533 59.6783L58.0533 58.2783L57.8783 58.4383C57.5933 58.6973 57.3023 58.9473 57.0053 59.1903L56.8223 59.3403L58.3223 61.0813L59.0593 61.9373L59.3643 61.6743L59.8193 61.2843Z" fill="white"/>
<path d="M69.3398 43.89L69.3968 43.117L67.3068 42.96C67.2938 43.219 67.2788 43.477 67.2578 43.735L69.3398 43.89Z" fill="white"/>
<path d="M69.5508 44.132L67.0078 43.943L67.0258 43.711C67.0468 43.458 67.0638 43.202 67.0748 42.944L67.0858 42.709L69.6418 42.898L69.5508 44.132ZM67.5038 43.522L69.1258 43.643L69.1488 43.331L67.5238 43.209C67.5168 43.309 67.5128 43.418 67.5038 43.522Z" fill="white"/>
<path d="M65.5059 43.605L67.2599 43.736C67.2799 43.478 67.2939 43.22 67.3069 42.963L65.5659 42.834C65.5499 43.09 65.5279 43.347 65.5059 43.605Z" fill="white"/>
<path d="M67.4689 43.981L65.2559 43.816L65.2769 43.581C65.3009 43.326 65.3209 43.072 65.3369 42.818L65.3479 42.583L67.5479 42.748L67.5379 42.972C67.5249 43.233 67.5099 43.494 67.4889 43.753L67.4689 43.981ZM65.7559 43.391L67.0449 43.491C67.0529 43.391 67.0599 43.284 67.0649 43.179L65.7809 43.079C65.7729 43.179 65.7659 43.288 65.7569 43.392" fill="white"/>
<path d="M60.0703 56.5095L61.5243 57.6465C61.5883 57.5715 61.6533 57.4945 61.7173 57.4185C61.9653 57.1185 62.2033 56.8185 62.4363 56.5065C62.5313 56.3795 62.6253 56.2485 62.7183 56.1215L61.2643 54.9805C60.8863 55.5095 60.4873 56.0195 60.0703 56.5075" fill="white"/>
<path d="M64.4186 58.0671L63.7006 58.9811L61.7106 57.4211C61.6486 57.4981 61.5836 57.5731 61.5176 57.6481L65.8346 60.9481L67.0326 59.4211L62.7156 56.1211C62.6226 56.2501 62.5296 56.3791 62.4346 56.5061L64.4186 58.0671Z" fill="white"/>
<path d="M64.4198 58.0699L62.4358 56.5059C62.2028 56.8139 61.9648 57.1189 61.7148 57.4199L63.7018 58.9809L64.4198 58.0699Z" fill="white"/>
<path d="M71.482 38.7868L71.282 37.1748L66.768 37.7228L65.084 37.9228L65.12 38.1578C65.177 38.5358 65.22 38.9178 65.259 39.2978L65.282 39.5348L66.982 39.3278L71.482 38.7868Z" fill="white"/>
<path d="M66.7266 28.3379L65.1836 29.1959L65.3046 29.3959C65.5046 29.7269 65.6866 30.0629 65.8656 30.4029L65.9766 30.6129L67.4616 29.7839L66.7266 28.3379Z" fill="white"/>
<path d="M53.9035 58.0557L53.7035 58.1847C53.3825 58.3917 53.0545 58.5907 52.7215 58.7847L52.5215 58.9017L53.7125 60.8607L54.0875 60.6457C54.3635 60.4837 54.6385 60.3147 54.9115 60.1457L55.0995 60.0247L53.9035 58.0557Z" fill="white"/>
<path d="M54.6279 63.7943L55.6479 63.2233L55.4569 62.8853L54.4129 61.0303L54.2129 61.1523C53.8796 61.3483 53.5462 61.5359 53.2129 61.7153L53.0039 61.8263L54.1249 63.8263L54.2309 64.0143L54.6279 63.7943Z" fill="white"/>
<path d="M49.8032 62.5562C49.5652 62.6392 49.3232 62.7132 49.0852 62.7892C49.3232 62.7122 49.5652 62.6392 49.8032 62.5562L48.8602 59.6182L47.7422 59.9382L48.6952 62.9152L49.0102 64.0102L50.1282 63.6902L49.8032 62.5562Z" fill="white"/>
<path d="M66.0476 33.8907L64.4766 34.3797C64.5936 34.7487 64.7066 35.1217 64.8076 35.4957L66.3936 34.9957C66.3496 34.8407 66.3026 34.6857 66.2546 34.5287C66.1876 34.3147 66.1196 34.0977 66.0476 33.8857" fill="white"/>
<path d="M63.6978 53.1844L63.8908 52.8144L63.4417 52.5904L63.6048 52.2604L63.0807 51.9844C62.9617 52.2164 62.8427 52.4464 62.7188 52.6714L63.6978 53.1844Z" fill="white"/>
<path d="M60.5811 51.6265L62.2091 52.4815C62.3351 52.2545 62.4541 52.0265 62.5711 51.7945L60.9411 50.9395C60.8241 51.1715 60.7051 51.3995 60.5811 51.6265Z" fill="white"/>
<path d="M63.8914 52.8138L64.0564 52.4978L63.6044 52.2598L63.4414 52.5908L63.8914 52.8138Z" fill="white"/>
<path d="M60.6791 42.1446L64.0051 42.1366C64.0161 41.7486 64.0161 41.3596 64.0051 40.9746L60.6641 40.9826C60.6771 41.3676 60.6841 41.7546 60.6751 42.1446" fill="white"/>
<path d="M64.0039 42.137L65.7449 42.122C65.7449 41.732 65.7449 41.345 65.7349 40.957L64.0069 40.975C64.0169 41.36 64.0149 41.75 64.0069 42.137" fill="white"/>
<path d="M53.0211 64.1036L52.2971 62.4266L51.5611 60.7266C51.2121 60.8896 50.8611 61.0446 50.4961 61.1886L51.2331 62.8966L51.9541 64.5676L52.5541 65.9676L53.6271 65.5036L53.0211 64.1036Z" fill="white"/>
<path d="M67.3691 51.2815L68.8801 51.8815L69.1671 51.1625L67.6581 50.5625C67.5671 50.8035 67.4701 51.0435 67.3691 51.2815Z" fill="white"/>
<path d="M65.6523 50.6048L67.3683 51.2868C67.4677 51.0501 67.5643 50.8105 67.6583 50.5678L65.9373 49.8838C65.8443 50.1268 65.7513 50.3668 65.6523 50.6048Z" fill="white"/>
<path d="M34.8838 70.0457L33.2969 76.0195L34.2015 76.2598L35.7884 70.286L34.8838 70.0457Z" fill="white"/>
<path d="M30.667 65.4604L27.8613 70.9668L28.6962 71.3922L31.5019 65.8858L30.667 65.4604Z" fill="white"/>
<path d="M0 44.8758L0.2 46.2888L13.587 44.7538C13.5103 44.2872 13.4437 43.8162 13.387 43.3408L0 44.8758Z" fill="white"/>
<path d="M25.5024 64.7247C25.117 64.4473 24.7407 64.1623 24.3734 63.8697L24.1894 63.7227L20.1094 69.1227L21.6164 70.2617L25.6934 64.8627L25.5024 64.7247Z" fill="white"/>
<path d="M7.53938 37.3584L7.48438 38.3074L13.2184 38.6384C13.233 38.3217 13.2514 38.0054 13.2734 37.6894L7.53938 37.3584Z" fill="white"/>
<path d="M18.3209 56.7178L9.46289 63.1668L10.8629 65.0918L19.7249 58.6428C19.2309 58.0194 18.7642 57.3778 18.3249 56.7178" fill="white"/>
<path d="M29.0664 8.60973L27.8154 5.96973L26.5254 6.57973L28.7474 11.2667L29.6524 10.8397L28.6934 8.78373L29.0664 8.60973Z" fill="white"/>
<path d="M16.555 47.792L16.486 47.562C16.372 47.1867 16.2654 46.8077 16.166 46.425C16.066 46.042 15.98 45.658 15.897 45.275L15.846 45.04L13.505 45.64L5.70703 47.649L6.40703 50.399L14.62 48.288L16.555 47.792Z" fill="white"/>
<path d="M15.3713 41.7454L15.3523 41.5074C15.3163 41.0424 15.2923 40.5664 15.2803 40.0944L15.2733 39.8594L12.9563 39.9724L4.52734 40.3864L4.62034 42.2744L13.4823 41.8374L15.3713 41.7454Z" fill="white"/>
<path d="M25.183 60.8628L25.004 60.7078C24.6487 60.3991 24.2997 60.0815 23.957 59.7548L23.786 59.5918L22.01 61.5428L18.334 65.5888L19.734 66.8598L23.483 62.7308L25.183 60.8628Z" fill="white"/>
<path d="M33.2707 68.3384L31.7927 72.4184L33.2727 68.3384C33.1227 68.2844 32.9727 68.2304 32.8257 68.1754L32.2117 69.8604L32.8237 68.1754L32.6427 68.1084L29.5527 76.7904L30.8987 77.2704L33.9887 68.5834C33.7487 68.5034 33.5077 68.4234 33.2707 68.3384Z" fill="white"/>
<path d="M31.3846 12.4523L29.4906 8.40234L29.4316 8.43034L29.4186 8.43734L29.0126 8.62334L28.6406 8.79834L29.6016 10.8523L30.3346 12.4183L31.1116 14.0823L31.3216 13.9823C31.4636 13.9153 31.6056 13.8483 31.7486 13.7823L31.9606 13.6823L31.3846 12.4523Z" fill="white"/>
<path d="M21.2199 16.164L14.4829 9.66797L13.1309 11.09L19.8949 17.557L21.2199 16.164Z" fill="white"/>
<path d="M15.8448 14.9697L14.5098 16.4037L18.1788 19.7427L19.4788 18.3427L15.8448 14.9697Z" fill="white"/>
<path d="M14.3403 30.7441L12.5853 30.3721L12.1973 32.2221L14.3723 32.6801L16.0723 33.0411L16.1143 32.8081C16.2003 32.3541 16.2983 31.8901 16.4143 31.4251L16.4693 31.1931L14.3403 30.7441Z" fill="white"/>
<path d="M37.1978 66.8877C36.7378 66.7817 36.2798 66.6637 35.8258 66.5367L35.5978 66.4727L34.9258 69.1087L35.8038 69.3487C36.0488 69.4127 36.2918 69.4727 36.5368 69.5277L36.7558 69.5787L37.4308 66.9387L37.1978 66.8877Z" fill="white"/>
<path d="M29.0024 13.6199L24.9924 6.83789L23.7754 7.55689L27.5474 13.9309L27.5934 14.0039L27.7824 14.3269L28.4954 15.5269L28.6954 15.4049C28.9634 15.2419 29.2354 15.0799 29.5094 14.9249L29.7094 14.8089L29.0024 13.6199Z" fill="white"/>
<path d="M16.7886 53.9533L12.1562 56.7969L13.1442 58.4063L17.7765 55.5628L16.7886 53.9533Z" fill="white"/>
<path d="M43.0703 67.8224C42.2703 67.8111 41.4787 67.7674 40.6953 67.6914L40.5693 69.9544L40.2773 79.0904L42.6543 79.2224L42.9443 70.0844L43.0703 67.8224ZM40.9333 69.9894C40.9073 69.9894 40.8793 69.9894 40.8533 69.9814C40.8793 69.9814 40.9073 69.9884 40.9333 69.9894Z" fill="white"/>
<path d="M2.31936 32.6035L2.19336 34.5315L9.71736 35.8185C9.75336 35.1725 9.81736 34.6425 9.88736 34.0075L2.31936 32.6035Z" fill="white"/>
<path d="M17.1821 24.8867L17.0761 25.0867C16.8508 25.5074 16.6348 25.9361 16.4281 26.3727L16.3281 26.5787L18.2281 27.5017L18.3281 27.2877C18.5241 26.8584 18.7308 26.4344 18.9481 26.0157L19.0571 25.8057L17.1821 24.8867Z" fill="white"/>
<path d="M34.5163 62.503C34.079 62.3236 33.6456 62.134 33.2163 61.934L33.0043 61.834L31.9043 64.312L32.3383 64.512C32.6973 64.678 33.0573 64.835 33.4253 64.988L33.6323 65.074L34.7323 62.588L34.5163 62.503Z" fill="white"/>
<path d="M25.0504 53.3691L24.2154 52.2061L21.1644 54.5341L20.0254 55.3481L20.8554 56.5101L22.0334 55.6681C21.8334 55.4201 21.6414 55.1681 21.4494 54.9081C21.6424 55.1641 21.8324 55.4201 22.0334 55.6681L25.0504 53.3691Z" fill="white"/>
<path d="M34.3075 12.5227L33.8715 11.2467L33.7625 10.9277L33.3125 11.0807L33.4235 11.4037L33.8595 12.6847L34.0345 12.6227C33.9755 12.6437 33.9185 12.6637 33.8595 12.6867L34.8775 15.6767C35.0275 15.6227 35.1775 15.5767 35.3295 15.5237L34.3075 12.5227Z" fill="white"/>
<path d="M14.5859 48.9536C14.6099 49.0306 14.6379 49.1036 14.6629 49.1806C14.6389 49.1036 14.6109 49.0306 14.5859 48.9536L14.0859 49.1246L14.5459 50.4756L15.0459 50.3046L16.9599 49.6536C16.7899 49.2116 16.6299 48.7636 16.4799 48.3096L14.5859 48.9536Z" fill="white"/>
<path d="M18.8585 47.499L16.4785 48.31C16.6285 48.7634 16.7885 49.2114 16.9585 49.654L19.3195 48.854C19.1528 48.4067 18.9995 47.9564 18.8595 47.503" fill="white"/>
<path d="M15.4389 34.7051C15.3849 35.0171 15.3389 35.3311 15.2969 35.6461L20.5469 36.5041C20.5939 36.1891 20.6469 35.8781 20.7069 35.5641L15.4389 34.7051Z" fill="white"/>
<path d="M12.2989 31.9289L11.4489 31.7849H11.4389L7.57892 31.1289L7.56392 31.2189L7.41992 32.0669L12.1399 32.8669L13.8949 33.1669C13.9369 32.8539 13.9829 32.5409 14.0369 32.2269L12.2989 31.9289Z" fill="white"/>
<path d="M25.8945 66.7687L27.1085 67.5207L28.0935 65.9287C27.6805 65.6877 27.2775 65.4357 26.8795 65.1787L25.8945 66.7687Z" fill="white"/>
<path d="M31.1076 61.2588C30.6946 61.0208 30.2916 60.7708 29.8936 60.5088L28.6936 62.4518L27.5176 64.3518C27.9176 64.6111 28.3222 64.8618 28.7316 65.1038L29.9116 63.1948C29.5856 63.0068 29.2676 62.8078 28.9486 62.6078C29.2666 62.8078 29.5846 63.0078 29.9126 63.1948L31.1076 61.2588Z" fill="white"/>
<path d="M37.0139 10.9126C36.8019 10.9596 36.5929 11.0126 36.3829 11.0626L35.6029 11.2556L36.3809 11.0626L35.2699 9.96265L35.0699 10.0116C35.1349 9.99565 35.2019 9.97865 35.2699 9.96065L36.3809 11.0606C36.5929 11.0086 36.8039 10.9606 37.0139 10.9106L36.7089 9.61065L35.9219 6.26465L35.7279 6.31165L34.4129 6.62965L34.2129 6.67565L35.0039 10.0246L35.3199 11.3246H35.3089L36.0349 14.4246C36.3429 14.3466 37.4349 14.0806 37.7409 14.0136L37.0139 10.9126Z" fill="white"/>
<path d="M21.041 49.5841L18.791 50.6201C18.948 50.9671 19.109 51.3101 19.279 51.6481C19.321 51.7361 19.365 51.8211 19.408 51.9091L21.641 50.8801C21.427 50.4511 21.227 50.0201 21.041 49.5801" fill="white"/>
<path d="M23.3815 16.1144L23.0859 16.3643L26.091 19.9193L26.3866 19.6695L23.3815 16.1144Z" fill="white"/>
<path d="M26.7186 58.0159L25.8716 57.2159L26.8656 56.1589C26.5316 55.8389 26.2086 55.5099 25.8886 55.1699L22.2676 58.9539L24.2256 60.8319L27.8456 57.0549C27.8036 57.0189 27.7626 56.9859 27.7216 56.9549L26.7186 58.0159Z" fill="white"/>
<path d="M14.5567 27.9635L14.2357 28.8035L9.58667 27.1055L9.26367 27.9845L15.0637 30.1065L15.3707 29.2225L15.3987 29.1475L19.9867 30.8625C20.0747 30.6225 20.1677 30.3865 20.2637 30.1495L14.5567 27.9635Z" fill="white"/>
<path d="M29.036 55.8865L28.86 55.7285C28.575 55.4725 28.294 55.2095 28.023 54.9385L27.853 54.7725L26.853 55.8345L25.543 57.2345L26.727 58.3455L28.052 56.9345L29.036 55.8865Z" fill="white"/>
<path d="M22.0974 25.7783L21.9734 25.9693C21.8334 26.1893 21.6924 26.4093 21.5604 26.6333L21.4414 26.8273L23.3974 28.0543L23.5184 27.8543C23.6524 27.6343 23.7864 27.4173 23.9264 27.2033L24.0534 27.0033L22.0974 25.7783Z" fill="white"/>
<path d="M39.9948 14.1221L39.7728 14.1451C39.3828 14.1861 38.9958 14.2351 38.6098 14.2951L38.3848 14.3291L38.6968 16.5611L38.9298 16.5221C39.3068 16.4581 39.6868 16.4061 40.0688 16.3621L40.3058 16.3361L39.9948 14.1221Z" fill="white"/>
<path d="M28.9185 18.8675L26.8805 15.9785L26.1875 16.4665L28.2235 19.3555L29.5515 21.2385L29.7395 21.1015C29.8395 21.0265 29.9495 20.9535 30.0525 20.8815L30.2455 20.7495L28.9185 18.8675Z" fill="white"/>
<path d="M39.9972 62.3717L39.7622 62.3357C39.6052 62.3127 39.4472 62.2867 39.2872 62.2607L39.0622 62.2217L38.8452 63.4337L38.8212 63.5657L38.1622 63.4487L37.7352 65.9077L37.5352 67.0337L39.1352 67.3127L39.7062 64.0257L39.9972 62.3717Z" fill="white"/>
<path d="M27.4348 20.5488L26.4138 19.3418L25.7708 19.8948L25.3008 20.3008L26.3368 21.5008L26.5118 21.3428C26.6458 21.2218 26.7808 21.1048 26.9198 20.9838L27.4348 20.5488Z" fill="white"/>
<path d="M24.0676 22.8342L19.7526 19.5342L18.5566 21.0612L22.8736 24.3612L24.3276 25.4982C24.7056 24.9712 25.1046 24.4602 25.5206 23.9712L24.0676 22.8342ZM23.7006 23.2832C23.7596 23.2102 23.8146 23.1352 23.8756 23.0632C23.8886 23.0452 23.9046 23.0272 23.9176 23.0112C23.9046 23.0292 23.8886 23.0452 23.8756 23.0632C23.8156 23.1352 23.7596 23.2102 23.7006 23.2832Z" fill="white"/>
<path d="M19.4142 43.2226C19.3535 42.8426 19.3029 42.462 19.2622 42.0806L19.2362 41.8486L14.7422 42.3966L14.9422 44.0096L19.4542 43.4616L19.4142 43.2226Z" fill="white"/>
<path d="M24.2196 40.1991C24.2066 39.8141 24.2016 39.4271 24.2086 39.0371L20.8836 39.0441L19.1426 39.0621H18.3906L18.4016 40.2251L19.1516 40.2181L20.8796 40.2021L24.2196 40.1991Z" fill="white"/>
<path d="M32.4178 17.124L31.5178 15.543C31.1788 15.727 30.8408 15.918 30.5098 16.121L31.4098 17.707C31.7431 17.507 32.0788 17.313 32.4168 17.125" fill="white"/>
<path d="M33.9114 18.2927L32.9894 16.6777C32.6501 16.8637 32.3144 17.0577 31.9824 17.2597L32.9004 18.8697C33.2338 18.6697 33.5704 18.4771 33.9104 18.2917" fill="white"/>
<path d="M39.2541 62.4891L39.6861 60.0761C39.2995 60.0174 38.9181 59.9488 38.5421 59.8701L38.1131 62.2631L37.8931 63.4901C37.9421 63.4981 37.9931 63.5081 38.0381 63.5181C37.9891 63.5081 37.9381 63.4981 37.8931 63.4901L37.8691 63.6291L38.1091 63.6731L38.1321 63.5361C38.1731 63.5441 38.2141 63.5511 38.2541 63.5601C38.2131 63.5501 38.1721 63.5441 38.1321 63.5361L38.1091 63.6731L38.3541 63.7171L39.0131 63.8341L39.0371 63.6951L39.2541 62.4891C39.0321 62.4511 38.8101 62.4101 38.5881 62.3641C38.8101 62.4081 39.0321 62.4511 39.2541 62.4891Z" fill="white"/>
<path d="M9.75355 18.8428L9.06055 20.0758L15.9155 23.9328L16.0285 23.7328C16.1819 23.4568 16.3389 23.1838 16.4995 22.9138L16.6215 22.7138L9.75355 18.8428Z" fill="white"/>
<path d="M44.539 0.039L42.418 0L42.534 9.965H42.661H42.532L42.494 12.391C43.347 12.368 43.714 12.383 44.569 12.339" fill="white"/>
<path d="M43.5035 11.3331L43.4727 15.7461L43.9487 15.7494L43.9795 11.3364L43.5035 11.3331Z" fill="white"/>
<path d="M46.5266 8.66309L45.2676 16.7761L45.5236 16.8041C46.2026 16.8811 46.8856 16.9851 47.5546 17.1121L47.8056 17.1611L49.0616 9.06109L46.5266 8.66309Z" fill="white"/>
<path d="M40.8594 12.3608L39.4104 2.9248L37.3594 3.2408L38.8134 12.6748C39.492 12.5415 40.175 12.4365 40.8624 12.3598" fill="white"/>
</g>
<defs>
<clipPath id="clip0_933_11294">
<rect width="155" height="79.221" fill="white"/>
</clipPath>
</defs>
</svg>
